<svg width="100" height="100" viewBox="0 0 100 100" fill="none" xmlns="http://www.w3.org/2000/svg">
<path d="M17.368 66.144C16.2267 66.144 15.2507 65.9093 14.44 65.44C13.6293 64.9707 13.0053 64.304 12.568 63.44C12.1413 62.5653 11.928 61.536 11.928 60.352C11.928 59.4667 12.0507 58.672 12.296 57.968C12.5413 57.2533 12.8933 56.6453 13.352 56.144C13.8213 55.632 14.392 55.2427 15.064 54.976C15.7467 54.7093 16.5147 54.576 17.368 54.576C17.9973 54.576 18.6 54.6613 19.176 54.832C19.7627 55.0027 20.2693 55.248 20.696 55.568C20.8773 55.6853 20.9947 55.8293 21.048 56C21.112 56.16 21.1227 56.3147 21.08 56.464C21.048 56.6133 20.9787 56.7413 20.872 56.848C20.7653 56.944 20.6267 56.9973 20.456 57.008C20.296 57.0187 20.12 56.96 19.928 56.832C19.576 56.5653 19.1867 56.368 18.76 56.24C18.3333 56.112 17.8853 56.048 17.416 56.048C16.6053 56.048 15.9227 56.2187 15.368 56.56C14.8133 56.8907 14.392 57.376 14.104 58.016C13.816 58.656 13.672 59.4347 13.672 60.352C13.672 61.2693 13.816 62.0533 14.104 62.704C14.392 63.344 14.8133 63.8347 15.368 64.176C15.9227 64.5067 16.6053 64.672 17.416 64.672C17.8853 64.672 18.3333 64.608 18.76 64.48C19.1973 64.3413 19.608 64.1387 19.992 63.872C20.184 63.7547 20.3547 63.7013 20.504 63.712C20.664 63.7227 20.7973 63.776 20.904 63.872C21.0107 63.968 21.08 64.0907 21.112 64.24C21.1547 64.3787 21.1493 64.528 21.096 64.688C21.0533 64.8373 20.952 64.9653 20.792 65.072C20.3547 65.424 19.8373 65.6907 19.24 65.872C18.6427 66.0533 18.0187 66.144 17.368 66.144ZM23.7485 66.112C23.4925 66.112 23.2952 66.0427 23.1565 65.904C23.0178 65.7547 22.9485 65.552 22.9485 65.296V55.424C22.9485 55.1573 23.0178 54.9547 23.1565 54.816C23.2952 54.6773 23.4925 54.608 23.7485 54.608C24.0045 54.608 24.2018 54.6773 24.3405 54.816C24.4898 54.9547 24.5645 55.1573 24.5645 55.424V59.856H24.3405C24.5752 59.2587 24.9432 58.8107 25.4445 58.512C25.9458 58.2027 26.5218 58.048 27.1725 58.048C27.7912 58.048 28.3032 58.1653 28.7085 58.4C29.1245 58.624 29.4338 58.9707 29.6365 59.44C29.8392 59.8987 29.9405 60.48 29.9405 61.184V65.296C29.9405 65.552 29.8712 65.7547 29.7325 65.904C29.5938 66.0427 29.3965 66.112 29.1405 66.112C28.8738 66.112 28.6712 66.0427 28.5325 65.904C28.3938 65.7547 28.3245 65.552 28.3245 65.296V61.28C28.3245 60.608 28.1912 60.1173 27.9245 59.808C27.6685 59.4987 27.2632 59.344 26.7085 59.344C26.0578 59.344 25.5352 59.5467 25.1405 59.952C24.7565 60.3573 24.5645 60.9013 24.5645 61.584V65.296C24.5645 65.84 24.2925 66.112 23.7485 66.112ZM32.9673 66.096C32.7113 66.096 32.5139 66.0213 32.3753 65.872C32.2366 65.712 32.1673 65.4933 32.1673 65.216V58.976C32.1673 58.6987 32.2366 58.4853 32.3753 58.336C32.5139 58.1867 32.7113 58.112 32.9673 58.112C33.2233 58.112 33.4206 58.1867 33.5593 58.336C33.7086 58.4853 33.7833 58.6987 33.7833 58.976V65.216C33.7833 65.4933 33.7139 65.712 33.5753 65.872C33.4366 66.0213 33.2339 66.096 32.9673 66.096ZM32.9673 56.448C32.6473 56.448 32.3966 56.368 32.2153 56.208C32.0446 56.048 31.9593 55.824 31.9593 55.536C31.9593 55.2373 32.0446 55.0133 32.2153 54.864C32.3966 54.704 32.6473 54.624 32.9673 54.624C33.2873 54.624 33.5326 54.704 33.7033 54.864C33.8846 55.0133 33.9753 55.2373 33.9753 55.536C33.9753 55.824 33.8846 56.048 33.7033 56.208C33.5326 56.368 33.2873 56.448 32.9673 56.448ZM36.8899 66.112C36.6339 66.112 36.4365 66.0427 36.2979 65.904C36.1592 65.7547 36.0899 65.552 36.0899 65.296V58.896C36.0899 58.6293 36.1592 58.4267 36.2979 58.288C36.4365 58.1493 36.6285 58.08 36.8739 58.08C37.1299 58.08 37.3219 58.1493 37.4499 58.288C37.5885 58.4267 37.6579 58.6293 37.6579 58.896V60.208L37.4819 59.856C37.6952 59.2907 38.0259 58.848 38.4739 58.528C38.9219 58.208 39.4605 58.048 40.0899 58.048C40.7405 58.048 41.2685 58.2027 41.6739 58.512C42.0792 58.8213 42.3565 59.296 42.5059 59.936H42.2819C42.4845 59.3493 42.8312 58.8907 43.3219 58.56C43.8125 58.2187 44.3832 58.048 45.0339 58.048C45.6312 58.048 46.1219 58.1653 46.5059 58.4C46.8899 58.624 47.1779 58.9707 47.3699 59.44C47.5619 59.8987 47.6579 60.48 47.6579 61.184V65.296C47.6579 65.552 47.5832 65.7547 47.4339 65.904C47.2952 66.0427 47.0979 66.112 46.8419 66.112C46.5859 66.112 46.3885 66.0427 46.2499 65.904C46.1112 65.7547 46.0419 65.552 46.0419 65.296V61.264C46.0419 60.6027 45.9245 60.1173 45.6899 59.808C45.4659 59.4987 45.0925 59.344 44.5699 59.344C43.9832 59.344 43.5192 59.5467 43.1779 59.952C42.8365 60.3573 42.6659 60.9173 42.6659 61.632V65.296C42.6659 65.552 42.5965 65.7547 42.4579 65.904C42.3192 66.0427 42.1219 66.112 41.8659 66.112C41.6099 66.112 41.4072 66.0427 41.2579 65.904C41.1192 65.7547 41.0499 65.552 41.0499 65.296V61.264C41.0499 60.6027 40.9379 60.1173 40.7139 59.808C40.4899 59.4987 40.1165 59.344 39.5939 59.344C39.0072 59.344 38.5432 59.5467 38.2019 59.952C37.8712 60.3573 37.7059 60.9173 37.7059 61.632V65.296C37.7059 65.84 37.4339 66.112 36.8899 66.112ZM53.5813 66.144C52.7279 66.144 51.9919 65.984 51.3733 65.664C50.7653 65.3333 50.2906 64.8693 49.9493 64.272C49.6186 63.664 49.4533 62.944 49.4533 62.112C49.4533 61.3013 49.6186 60.592 49.9493 59.984C50.2799 59.376 50.7333 58.9013 51.3093 58.56C51.8853 58.2187 52.5413 58.048 53.2773 58.048C53.8213 58.048 54.3066 58.1387 54.7333 58.32C55.1599 58.4907 55.5226 58.7467 55.8213 59.088C56.1306 59.4187 56.3599 59.824 56.5093 60.304C56.6693 60.784 56.7493 61.3227 56.7493 61.92C56.7493 62.1013 56.6959 62.24 56.5893 62.336C56.4826 62.4213 56.3226 62.464 56.1093 62.464H50.7333V61.472H55.6613L55.3893 61.696C55.3893 61.1627 55.3093 60.7093 55.1493 60.336C54.9999 59.9627 54.7706 59.68 54.4613 59.488C54.1626 59.2853 53.7893 59.184 53.3413 59.184C52.8399 59.184 52.4133 59.3013 52.0613 59.536C51.7199 59.7707 51.4586 60.096 51.2773 60.512C51.0959 60.928 51.0053 61.4133 51.0053 61.968V62.064C51.0053 63.0027 51.2239 63.712 51.6613 64.192C52.1093 64.6613 52.7546 64.896 53.5973 64.896C53.9173 64.896 54.2533 64.8533 54.6053 64.768C54.9679 64.6827 55.3093 64.5387 55.6293 64.336C55.8106 64.2293 55.9706 64.1813 56.1093 64.192C56.2586 64.2027 56.3759 64.2507 56.4613 64.336C56.5573 64.4213 56.6159 64.528 56.6373 64.656C56.6586 64.784 56.6373 64.9173 56.5733 65.056C56.5093 65.184 56.3973 65.3013 56.2373 65.408C55.8746 65.6533 55.4533 65.84 54.9733 65.968C54.4933 66.0853 54.0293 66.144 53.5813 66.144ZM59.535 66C59.2683 66 59.0603 65.9253 58.911 65.776C58.7617 65.6267 58.687 65.4187 58.687 65.152V55.504C58.687 55.2267 58.7563 55.0187 58.895 54.88C59.0443 54.7307 59.2523 54.656 59.519 54.656C59.7857 54.656 59.9883 54.7307 60.127 54.88C60.2763 55.0187 60.351 55.2267 60.351 55.504V64.576H65.311C65.5457 64.576 65.727 64.64 65.855 64.768C65.983 64.8853 66.047 65.056 66.047 65.28C66.047 65.504 65.983 65.68 65.855 65.808C65.727 65.936 65.5457 66 65.311 66H59.535ZM68.1391 66.096C67.8831 66.096 67.6858 66.0213 67.5471 65.872C67.4085 65.712 67.3391 65.4933 67.3391 65.216V58.976C67.3391 58.6987 67.4085 58.4853 67.5471 58.336C67.6858 58.1867 67.8831 58.112 68.1391 58.112C68.3951 58.112 68.5925 58.1867 68.7311 58.336C68.8805 58.4853 68.9551 58.6987 68.9551 58.976V65.216C68.9551 65.4933 68.8858 65.712 68.7471 65.872C68.6085 66.0213 68.4058 66.096 68.1391 66.096ZM68.1391 56.448C67.8191 56.448 67.5685 56.368 67.3871 56.208C67.2165 56.048 67.1311 55.824 67.1311 55.536C67.1311 55.2373 67.2165 55.0133 67.3871 54.864C67.5685 54.704 67.8191 54.624 68.1391 54.624C68.4591 54.624 68.7045 54.704 68.8751 54.864C69.0565 55.0133 69.1471 55.2373 69.1471 55.536C69.1471 55.824 69.0565 56.048 68.8751 56.208C68.7045 56.368 68.4591 56.448 68.1391 56.448ZM72.0298 66.112C71.7738 66.112 71.5764 66.0427 71.4378 65.904C71.2991 65.7547 71.2298 65.552 71.2298 65.296V58.896C71.2298 58.6293 71.2991 58.4267 71.4378 58.288C71.5764 58.1493 71.7684 58.08 72.0138 58.08C72.2698 58.08 72.4618 58.1493 72.5898 58.288C72.7284 58.4267 72.7978 58.6293 72.7978 58.896V60.144L72.6218 59.856C72.8564 59.2587 73.2244 58.8107 73.7258 58.512C74.2271 58.2027 74.8031 58.048 75.4538 58.048C76.0724 58.048 76.5844 58.1653 76.9898 58.4C77.4058 58.624 77.7151 58.9707 77.9178 59.44C78.1204 59.8987 78.2218 60.48 78.2218 61.184V65.296C78.2218 65.552 78.1524 65.7547 78.0138 65.904C77.8751 66.0427 77.6778 66.112 77.4218 66.112C77.1551 66.112 76.9524 66.0427 76.8138 65.904C76.6751 65.7547 76.6058 65.552 76.6058 65.296V61.28C76.6058 60.608 76.4724 60.1173 76.2058 59.808C75.9498 59.4987 75.5444 59.344 74.9898 59.344C74.3391 59.344 73.8164 59.5467 73.4218 59.952C73.0378 60.3573 72.8458 60.9013 72.8458 61.584V65.296C72.8458 65.84 72.5738 66.112 72.0298 66.112ZM84.1125 66.144C83.2592 66.144 82.5232 65.984 81.9045 65.664C81.2965 65.3333 80.8218 64.8693 80.4805 64.272C80.1498 63.664 79.9845 62.944 79.9845 62.112C79.9845 61.3013 80.1498 60.592 80.4805 59.984C80.8112 59.376 81.2645 58.9013 81.8405 58.56C82.4165 58.2187 83.0725 58.048 83.8085 58.048C84.3525 58.048 84.8378 58.1387 85.2645 58.32C85.6912 58.4907 86.0538 58.7467 86.3525 59.088C86.6618 59.4187 86.8912 59.824 87.0405 60.304C87.2005 60.784 87.2805 61.3227 87.2805 61.92C87.2805 62.1013 87.2272 62.24 87.1205 62.336C87.0138 62.4213 86.8538 62.464 86.6405 62.464H81.2645V61.472H86.1925L85.9205 61.696C85.9205 61.1627 85.8405 60.7093 85.6805 60.336C85.5312 59.9627 85.3018 59.68 84.9925 59.488C84.6938 59.2853 84.3205 59.184 83.8725 59.184C83.3712 59.184 82.9445 59.3013 82.5925 59.536C82.2512 59.7707 81.9898 60.096 81.8085 60.512C81.6272 60.928 81.5365 61.4133 81.5365 61.968V62.064C81.5365 63.0027 81.7552 63.712 82.1925 64.192C82.6405 64.6613 83.2858 64.896 84.1285 64.896C84.4485 64.896 84.7845 64.8533 85.1365 64.768C85.4992 64.6827 85.8405 64.5387 86.1605 64.336C86.3418 64.2293 86.5018 64.1813 86.6405 64.192C86.7898 64.2027 86.9072 64.2507 86.9925 64.336C87.0885 64.4213 87.1472 64.528 87.1685 64.656C87.1898 64.784 87.1685 64.9173 87.1045 65.056C87.0405 65.184 86.9285 65.3013 86.7685 65.408C86.4058 65.6533 85.9845 65.84 85.5045 65.968C85.0245 66.0853 84.5605 66.144 84.1125 66.144Z" fill="#F7F7F7"/>
<path d="M20 37C20 37 31.9639 30.5119 40 31C48.0361 31.4881 52.1475 38.1545 60 39C67.8525 39.8455 80 37 80 37" stroke="#666666" stroke-width="3" stroke-linecap="round"/>
<circle cx="20" cy="36" r="6" fill="#00BFFF"/>
<circle cx="80" cy="37" r="6" fill="#00BFFF"/>
<circle cx="60" cy="39" r="6" fill="#00BFFF"/>
<g filter="url(#filter0_d_3_73)">
<circle cx="42" cy="32" r="7" fill="#33F0FF"/>
</g>
<defs>
<filter id="filter0_d_3_73" x="29" y="19" width="26" height="26" filterUnits="userSpaceOnUse" color-interpolation-filters="sRGB">
<feFlood flood-opacity="0" result="BackgroundImageFix"/>
<feColorMatrix in="SourceAlpha" type="matrix" values="0 0 0 0 0 0 0 0 0 0 0 0 0 0 0 0 0 0 127 0" result="hardAlpha"/>
<feMorphology radius="1" operator="dilate" in="SourceAlpha" result="effect1_dropShadow_3_73"/>
<feOffset/>
<feGaussianBlur stdDeviation="2.5"/>
<feComposite in2="hardAlpha" operator="out"/>
<feColorMatrix type="matrix" values="0 0 0 0 0 0 0 0 0 0.878431 0 0 0 0 1 0 0 0 0.4 0"/>
<feBlend mode="normal" in2="BackgroundImageFix" result="effect1_dropShadow_3_73"/>
<feBlend mode="normal" in="SourceGraphic" in2="effect1_dropShadow_3_73" result="shape"/>
</filter>
</defs>
</svg>
