<svg width="100" height="100" viewBox="0 0 100 100" fill="none" xmlns="http://www.w3.org/2000/svg">
<path d="M13.632 62.16C12.6293 62.16 11.776 61.9947 11.072 61.664C10.3787 61.3227 9.84 60.832 9.456 60.192C9.072 59.5413 8.85867 58.752 8.816 57.824C8.80533 57.3867 8.8 56.9173 8.8 56.416C8.8 55.9147 8.80533 55.4347 8.816 54.976C8.85867 54.0587 9.072 53.28 9.456 52.64C9.85067 51.9893 10.4 51.4933 11.104 51.152C11.808 50.8107 12.6507 50.64 13.632 50.64C14.3467 50.64 14.9973 50.7307 15.584 50.912C16.1707 51.0933 16.6773 51.3547 17.104 51.696C17.5307 52.0373 17.8613 52.4373 18.096 52.896C18.3307 53.3547 18.4587 53.8667 18.48 54.432C18.48 54.528 18.4427 54.608 18.368 54.672C18.304 54.736 18.224 54.768 18.128 54.768H16.304C16.176 54.768 16.0747 54.736 16 54.672C15.9253 54.608 15.8667 54.5013 15.824 54.352C15.664 53.7227 15.3973 53.2907 15.024 53.056C14.6507 52.8213 14.1867 52.704 13.632 52.704C12.9707 52.704 12.448 52.8853 12.064 53.248C11.68 53.6107 11.472 54.2133 11.44 55.056C11.408 55.9307 11.408 56.8267 11.44 57.744C11.472 58.5867 11.68 59.1893 12.064 59.552C12.448 59.9147 12.9707 60.096 13.632 60.096C14.1867 60.096 14.6507 59.9787 15.024 59.744C15.408 59.4987 15.6747 59.0667 15.824 58.448C15.8667 58.288 15.9253 58.1813 16 58.128C16.0747 58.064 16.176 58.032 16.304 58.032H18.128C18.224 58.032 18.304 58.064 18.368 58.128C18.4427 58.192 18.48 58.272 18.48 58.368C18.4587 58.9333 18.3307 59.4453 18.096 59.904C17.8613 60.3627 17.5307 60.7627 17.104 61.104C16.6773 61.4453 16.1707 61.7067 15.584 61.888C14.9973 62.0693 14.3467 62.16 13.632 62.16ZM20.5018 62C20.3844 62 20.2884 61.9627 20.2138 61.888C20.1391 61.8133 20.1018 61.7173 20.1018 61.6V51.04C20.1018 50.9227 20.1391 50.8267 20.2138 50.752C20.2884 50.6773 20.3844 50.64 20.5018 50.64H22.2298C22.3364 50.64 22.4271 50.6773 22.5018 50.752C22.5764 50.8267 22.6138 50.9227 22.6138 51.04V54.64C22.9018 54.2987 23.2538 54.0267 23.6698 53.824C24.0858 53.6213 24.5871 53.52 25.1738 53.52C25.8031 53.52 26.3578 53.664 26.8378 53.952C27.3284 54.2293 27.7124 54.64 27.9898 55.184C28.2671 55.7173 28.4058 56.368 28.4058 57.136V61.6C28.4058 61.7173 28.3684 61.8133 28.2938 61.888C28.2191 61.9627 28.1231 62 28.0058 62H26.2618C26.1551 62 26.0644 61.9627 25.9898 61.888C25.9151 61.8133 25.8778 61.7173 25.8778 61.6V57.232C25.8778 56.6667 25.7391 56.2293 25.4618 55.92C25.1844 55.6 24.7898 55.44 24.2778 55.44C23.7764 55.44 23.3711 55.6 23.0618 55.92C22.7631 56.2293 22.6138 56.6667 22.6138 57.232V61.6C22.6138 61.7173 22.5764 61.8133 22.5018 61.888C22.4271 61.9627 22.3364 62 22.2298 62H20.5018ZM30.7045 62C30.5978 62 30.5072 61.9627 30.4325 61.888C30.3578 61.8133 30.3205 61.7173 30.3205 61.6V54.08C30.3205 53.9627 30.3578 53.8667 30.4325 53.792C30.5072 53.7173 30.5978 53.68 30.7045 53.68H32.3045C32.4218 53.68 32.5178 53.7173 32.5925 53.792C32.6672 53.8667 32.7045 53.9627 32.7045 54.08V61.6C32.7045 61.7173 32.6672 61.8133 32.5925 61.888C32.5178 61.9627 32.4218 62 32.3045 62H30.7045ZM30.6565 52.4C30.5498 52.4 30.4592 52.3627 30.3845 52.288C30.3098 52.2133 30.2725 52.1173 30.2725 52V50.72C30.2725 50.6027 30.3098 50.5067 30.3845 50.432C30.4592 50.3467 30.5498 50.304 30.6565 50.304H32.3365C32.4538 50.304 32.5498 50.3467 32.6245 50.432C32.7098 50.5067 32.7525 50.6027 32.7525 50.72V52C32.7525 52.1173 32.7098 52.2133 32.6245 52.288C32.5498 52.3627 32.4538 52.4 32.3365 52.4H30.6565ZM35.0951 62C34.9885 62 34.8978 61.9627 34.8231 61.888C34.7485 61.8133 34.7111 61.7173 34.7111 61.6V54.08C34.7111 53.9627 34.7485 53.8667 34.8231 53.792C34.8978 53.7173 34.9885 53.68 35.0951 53.68H36.5831C36.6898 53.68 36.7805 53.7173 36.8551 53.792C36.9405 53.8667 36.9831 53.9627 36.9831 54.08V54.624C37.1965 54.3253 37.4898 54.0693 37.8631 53.856C38.2471 53.6427 38.7005 53.5307 39.2231 53.52C40.4605 53.4987 41.3085 53.968 41.7671 54.928C42.0125 54.512 42.3645 54.176 42.8231 53.92C43.2925 53.6533 43.8045 53.52 44.3591 53.52C44.9138 53.52 45.4151 53.648 45.8631 53.904C46.3111 54.1493 46.6631 54.5333 46.9191 55.056C47.1858 55.568 47.3191 56.2293 47.3191 57.04V61.6C47.3191 61.7173 47.2818 61.8133 47.2071 61.888C47.1325 61.9627 47.0418 62 46.9351 62H45.3511C45.2445 62 45.1538 61.9627 45.0791 61.888C45.0045 61.8133 44.9671 61.7173 44.9671 61.6V57.168C44.9671 56.7307 44.9031 56.3893 44.7751 56.144C44.6471 55.888 44.4765 55.7067 44.2631 55.6C44.0605 55.4933 43.8311 55.44 43.5751 55.44C43.3511 55.44 43.1325 55.4933 42.9191 55.6C42.7165 55.7067 42.5458 55.888 42.4071 56.144C42.2791 56.3893 42.2151 56.7307 42.2151 57.168V61.6C42.2151 61.7173 42.1778 61.8133 42.1031 61.888C42.0285 61.9627 41.9325 62 41.8151 62H40.2471C40.1298 62 40.0338 61.9627 39.9591 61.888C39.8845 61.8133 39.8471 61.7173 39.8471 61.6V57.168C39.8471 56.7307 39.7831 56.3893 39.6551 56.144C39.5271 55.888 39.3565 55.7067 39.1431 55.6C38.9405 55.4933 38.7165 55.44 38.4711 55.44C38.2471 55.44 38.0285 55.4987 37.8151 55.616C37.6018 55.7227 37.4258 55.8987 37.2871 56.144C37.1591 56.3893 37.0951 56.7253 37.0951 57.152V61.6C37.0951 61.7173 37.0578 61.8133 36.9831 61.888C36.9085 61.9627 36.8178 62 36.7111 62H35.0951ZM52.97 62.16C51.7433 62.16 50.7673 61.8187 50.042 61.136C49.3273 60.4533 48.9487 59.4613 48.906 58.16C48.906 58.0747 48.906 57.9627 48.906 57.824C48.906 57.6747 48.906 57.5573 48.906 57.472C48.9487 56.6507 49.1353 55.9467 49.466 55.36C49.7967 54.7627 50.2607 54.3093 50.858 54C51.4553 53.68 52.154 53.52 52.954 53.52C53.85 53.52 54.5967 53.7067 55.194 54.08C55.802 54.4427 56.2553 54.944 56.554 55.584C56.8633 56.2133 57.018 56.9387 57.018 57.76V58.128C57.018 58.2347 56.9753 58.3253 56.89 58.4C56.8153 58.4747 56.7247 58.512 56.618 58.512H51.386C51.386 58.5227 51.386 58.544 51.386 58.576C51.386 58.5973 51.386 58.6187 51.386 58.64C51.3967 58.9813 51.4607 59.296 51.578 59.584C51.706 59.8613 51.882 60.0853 52.106 60.256C52.3407 60.4267 52.618 60.512 52.938 60.512C53.2047 60.512 53.4233 60.4747 53.594 60.4C53.7647 60.3253 53.9033 60.2347 54.01 60.128C54.1273 60.0213 54.2127 59.9307 54.266 59.856C54.362 59.7493 54.4367 59.6853 54.49 59.664C54.554 59.632 54.65 59.616 54.778 59.616H56.442C56.5487 59.616 56.634 59.648 56.698 59.712C56.7727 59.7653 56.8047 59.8453 56.794 59.952C56.7833 60.1227 56.6927 60.336 56.522 60.592C56.362 60.8373 56.122 61.0827 55.802 61.328C55.482 61.5627 55.082 61.76 54.602 61.92C54.1327 62.08 53.5887 62.16 52.97 62.16ZM51.386 57.056H54.522V57.024C54.522 56.64 54.458 56.3093 54.33 56.032C54.2127 55.744 54.0367 55.52 53.802 55.36C53.5673 55.2 53.2847 55.12 52.954 55.12C52.6233 55.12 52.3407 55.2 52.106 55.36C51.8713 55.52 51.69 55.744 51.562 56.032C51.4447 56.3093 51.386 56.64 51.386 57.024V57.056ZM59.1934 62C59.076 62 58.98 61.9627 58.9054 61.888C58.8307 61.8133 58.7934 61.7173 58.7934 61.6V51.2C58.7934 51.0827 58.8307 50.9867 58.9054 50.912C58.98 50.8373 59.076 50.8 59.1934 50.8H60.9694C61.0867 50.8 61.1827 50.8373 61.2574 50.912C61.332 50.9867 61.3694 51.0827 61.3694 51.2V59.856H66.3294C66.4467 59.856 66.5427 59.8933 66.6174 59.968C66.692 60.0427 66.7294 60.1387 66.7294 60.256V61.6C66.7294 61.7173 66.692 61.8133 66.6174 61.888C66.5427 61.9627 66.4467 62 66.3294 62H59.1934ZM68.4076 62C68.301 62 68.2103 61.9627 68.1356 61.888C68.061 61.8133 68.0236 61.7173 68.0236 61.6V54.08C68.0236 53.9627 68.061 53.8667 68.1356 53.792C68.2103 53.7173 68.301 53.68 68.4076 53.68H70.0076C70.125 53.68 70.221 53.7173 70.2956 53.792C70.3703 53.8667 70.4076 53.9627 70.4076 54.08V61.6C70.4076 61.7173 70.3703 61.8133 70.2956 61.888C70.221 61.9627 70.125 62 70.0076 62H68.4076ZM68.3596 52.4C68.253 52.4 68.1623 52.3627 68.0876 52.288C68.013 52.2133 67.9756 52.1173 67.9756 52V50.72C67.9756 50.6027 68.013 50.5067 68.0876 50.432C68.1623 50.3467 68.253 50.304 68.3596 50.304H70.0396C70.157 50.304 70.253 50.3467 70.3276 50.432C70.413 50.5067 70.4556 50.6027 70.4556 50.72V52C70.4556 52.1173 70.413 52.2133 70.3276 52.288C70.253 52.3627 70.157 52.4 70.0396 52.4H68.3596ZM72.7983 62C72.6916 62 72.6009 61.9627 72.5263 61.888C72.4516 61.8133 72.4143 61.7173 72.4143 61.6V54.08C72.4143 53.9627 72.4516 53.8667 72.5263 53.792C72.6009 53.7173 72.6916 53.68 72.7983 53.68H74.3663C74.4836 53.68 74.5796 53.7173 74.6543 53.792C74.7289 53.8667 74.7663 53.9627 74.7663 54.08V54.704C75.0436 54.3627 75.4009 54.08 75.8383 53.856C76.2756 53.632 76.8089 53.52 77.4383 53.52C78.0676 53.52 78.6169 53.664 79.0863 53.952C79.5663 54.2293 79.9396 54.64 80.2063 55.184C80.4836 55.7173 80.6223 56.368 80.6223 57.136V61.6C80.6223 61.7173 80.5796 61.8133 80.4943 61.888C80.4196 61.9627 80.3289 62 80.2222 62H78.5263C78.4089 62 78.3129 61.9627 78.2383 61.888C78.1636 61.8133 78.1263 61.7173 78.1263 61.6V57.232C78.1263 56.6667 77.9876 56.2293 77.7103 55.92C77.4436 55.6 77.0489 55.44 76.5263 55.44C76.0249 55.44 75.6249 55.6 75.3263 55.92C75.0276 56.2293 74.8783 56.6667 74.8783 57.232V61.6C74.8783 61.7173 74.8409 61.8133 74.7663 61.888C74.6916 61.9627 74.6009 62 74.4943 62H72.7983ZM86.2513 62.16C85.0246 62.16 84.0486 61.8187 83.3233 61.136C82.6086 60.4533 82.2299 59.4613 82.1873 58.16C82.1873 58.0747 82.1873 57.9627 82.1873 57.824C82.1873 57.6747 82.1873 57.5573 82.1873 57.472C82.2299 56.6507 82.4166 55.9467 82.7473 55.36C83.0779 54.7627 83.5419 54.3093 84.1393 54C84.7366 53.68 85.4353 53.52 86.2352 53.52C87.1313 53.52 87.8779 53.7067 88.4753 54.08C89.0833 54.4427 89.5366 54.944 89.8353 55.584C90.1446 56.2133 90.2993 56.9387 90.2993 57.76V58.128C90.2993 58.2347 90.2566 58.3253 90.1713 58.4C90.0966 58.4747 90.0059 58.512 89.8993 58.512H84.6673C84.6673 58.5227 84.6673 58.544 84.6673 58.576C84.6673 58.5973 84.6673 58.6187 84.6673 58.64C84.6779 58.9813 84.7419 59.296 84.8593 59.584C84.9873 59.8613 85.1633 60.0853 85.3873 60.256C85.6219 60.4267 85.8993 60.512 86.2193 60.512C86.4859 60.512 86.7046 60.4747 86.8753 60.4C87.0459 60.3253 87.1846 60.2347 87.2913 60.128C87.4086 60.0213 87.4939 59.9307 87.5473 59.856C87.6433 59.7493 87.7179 59.6853 87.7713 59.664C87.8353 59.632 87.9313 59.616 88.0593 59.616H89.7233C89.8299 59.616 89.9153 59.648 89.9792 59.712C90.0539 59.7653 90.0859 59.8453 90.0753 59.952C90.0646 60.1227 89.9739 60.336 89.8033 60.592C89.6433 60.8373 89.4033 61.0827 89.0833 61.328C88.7633 61.5627 88.3633 61.76 87.8833 61.92C87.4139 62.08 86.8699 62.16 86.2513 62.16ZM84.6673 57.056H87.8033V57.024C87.8033 56.64 87.7393 56.3093 87.6113 56.032C87.4939 55.744 87.3179 55.52 87.0833 55.36C86.8486 55.2 86.5659 55.12 86.2352 55.12C85.9046 55.12 85.6219 55.2 85.3873 55.36C85.1526 55.52 84.9713 55.744 84.8433 56.032C84.7259 56.3093 84.6673 56.64 84.6673 57.024V57.056Z" fill="#222222"/>
<rect x="20" y="35" width="60" height="4" fill="#AAAAAA"/>
<circle cx="20" cy="37" r="6" fill="#0077AA"/>
<circle cx="59" cy="37" r="6" fill="#0077AA"/>
<circle cx="40" cy="37" r="7" fill="#00AABB"/>
<circle cx="40" cy="37" r="7.5" stroke="#00AABB" stroke-opacity="0.5"/>
<circle cx="80" cy="37" r="6" fill="#0077AA"/>
</svg>
